<?xml version="1.0" encoding="UTF-8" standalone="no"?>
<!DOCTYPE svg PUBLIC "-//W3C//DTD SVG 1.1//EN"
 "http://www.w3.org/Graphics/SVG/1.1/DTD/svg11.dtd">
<!-- Generated by graphviz version 2.47.0 (20210316.0004)
 -->
<!-- Title: dependencies Pages: 1 -->
<svg width="1535pt" height="211pt"
 viewBox="0.00 0.00 1535.00 211.00" xmlns="http://www.w3.org/2000/svg" xmlns:xlink="http://www.w3.org/1999/xlink">
<g id="graph0" class="graph" transform="scale(1 1) rotate(0) translate(4 207)">
<title>dependencies</title>
<polygon fill="white" stroke="transparent" points="-4,4 -4,-207 1531,-207 1531,4 -4,4"/>
<text text-anchor="start" x="742.51" y="-42.4" font-family="Times-12" font-weight="bold" font-size="14.00">Legend</text>
<polygon fill="#ffffb3" stroke="transparent" points="529.5,-10 529.5,-30 549.5,-30 549.5,-10 529.5,-10"/>
<text text-anchor="start" x="553.13" y="-15.4" font-family="Times-12" font-size="14.00"> &#160;Declarations</text>
<polygon fill="#8dd3c7" stroke="transparent" points="642.5,-10 642.5,-30 662.5,-30 662.5,-10 642.5,-10"/>
<text text-anchor="start" x="666.23" y="-15.4" font-family="Times-12" font-size="14.00"> &#160;Module</text>
<polygon fill="#80b1d3" stroke="transparent" points="728.5,-10 728.5,-30 748.5,-30 748.5,-10 728.5,-10"/>
<text text-anchor="start" x="752.28" y="-15.4" font-family="Times-12" font-size="14.00"> &#160;Bootstrap</text>
<polygon fill="#fdb462" stroke="transparent" points="825.5,-10 825.5,-30 845.5,-30 845.5,-10 825.5,-10"/>
<text text-anchor="start" x="849.17" y="-15.4" font-family="Times-12" font-size="14.00"> &#160;Providers</text>
<polygon fill="#fb8072" stroke="transparent" points="921.5,-10 921.5,-30 941.5,-30 941.5,-10 921.5,-10"/>
<text text-anchor="start" x="945.23" y="-15.4" font-family="Times-12" font-size="14.00"> &#160;Exports</text>
<g id="clust1" class="cluster">
<title>cluster_HomePageModule</title>
<polygon fill="none" stroke="black" stroke-dasharray="1,5" points="8,-70 8,-195 1519,-195 1519,-70 8,-70"/>
</g>
<g id="clust10" class="cluster">
<title>cluster_HomePageModule_imports</title>
<polygon fill="none" stroke="black" points="1213,-78 1213,-130 1511,-130 1511,-78 1213,-78"/>
</g>
<g id="clust2" class="cluster">
<title>cluster_HomePageModule_declarations</title>
<polygon fill="none" stroke="black" points="16,-78 16,-130 1205,-130 1205,-78 16,-78"/>
</g>
<!-- HomePage -->
<g id="node1" class="node">
<title>HomePage</title>
<polygon fill="#ffffb3" stroke="black" points="1196.92,-122 1119.08,-122 1119.08,-86 1196.92,-86 1196.92,-122"/>
<text text-anchor="middle" x="1158" y="-99.8" font-family="Times,serif" font-size="14.00">HomePage</text>
</g>
<!-- HomePageModule -->
<g id="node8" class="node">
<title>HomePageModule</title>
<polygon fill="#8dd3c7" stroke="black" points="837.47,-187 834.47,-191 813.47,-191 810.47,-187 716.53,-187 716.53,-151 837.47,-151 837.47,-187"/>
<text text-anchor="middle" x="777" y="-164.8" font-family="Times,serif" font-size="14.00">HomePageModule</text>
</g>
<!-- HomePage&#45;&gt;HomePageModule -->
<g id="edge1" class="edge">
<title>HomePage&#45;&gt;HomePageModule</title>
<path fill="none" stroke="black" d="M1158,-122.27C1158,-140.56 1158,-166 1158,-166 1158,-166 847.79,-166 847.79,-166"/>
<polygon fill="black" stroke="black" points="847.79,-162.5 837.79,-166 847.79,-169.5 847.79,-162.5"/>
</g>
<!-- ProviderItemSelectableComponent -->
<g id="node2" class="node">
<title>ProviderItemSelectableComponent</title>
<polygon fill="#ffffb3" stroke="black" points="1101.23,-122 888.77,-122 888.77,-86 1101.23,-86 1101.23,-122"/>
<text text-anchor="middle" x="995" y="-99.8" font-family="Times,serif" font-size="14.00">ProviderItemSelectableComponent</text>
</g>
<!-- ProviderItemSelectableComponent&#45;&gt;HomePageModule -->
<g id="edge2" class="edge">
<title>ProviderItemSelectableComponent&#45;&gt;HomePageModule</title>
<path fill="none" stroke="black" d="M995,-122.01C995,-138.05 995,-159 995,-159 995,-159 847.73,-159 847.73,-159"/>
<polygon fill="black" stroke="black" points="847.73,-155.5 837.73,-159 847.73,-162.5 847.73,-155.5"/>
</g>
<!-- ProviderSelectableComponent -->
<g id="node3" class="node">
<title>ProviderSelectableComponent</title>
<polygon fill="#ffffb3" stroke="black" points="870.57,-122 683.43,-122 683.43,-86 870.57,-86 870.57,-122"/>
<text text-anchor="middle" x="777" y="-99.8" font-family="Times,serif" font-size="14.00">ProviderSelectableComponent</text>
</g>
<!-- ProviderSelectableComponent&#45;&gt;HomePageModule -->
<g id="edge3" class="edge">
<title>ProviderSelectableComponent&#45;&gt;HomePageModule</title>
<path fill="none" stroke="black" d="M777,-122.11C777,-122.11 777,-140.99 777,-140.99"/>
<polygon fill="black" stroke="black" points="773.5,-140.99 777,-150.99 780.5,-140.99 773.5,-140.99"/>
</g>
<!-- SpentFormComponent -->
<g id="node4" class="node">
<title>SpentFormComponent</title>
<polygon fill="#ffffb3" stroke="black" points="665.55,-122 522.45,-122 522.45,-86 665.55,-86 665.55,-122"/>
<text text-anchor="middle" x="594" y="-99.8" font-family="Times,serif" font-size="14.00">SpentFormComponent</text>
</g>
<!-- SpentFormComponent&#45;&gt;HomePageModule -->
<g id="edge4" class="edge">
<title>SpentFormComponent&#45;&gt;HomePageModule</title>
<path fill="none" stroke="black" d="M594,-122.01C594,-138.05 594,-159 594,-159 594,-159 706.32,-159 706.32,-159"/>
<polygon fill="black" stroke="black" points="706.32,-162.5 716.32,-159 706.32,-155.5 706.32,-162.5"/>
</g>
<!-- SpentItemComponent -->
<g id="node5" class="node">
<title>SpentItemComponent</title>
<polygon fill="#ffffb3" stroke="black" points="504.38,-122 365.62,-122 365.62,-86 504.38,-86 504.38,-122"/>
<text text-anchor="middle" x="435" y="-99.8" font-family="Times,serif" font-size="14.00">SpentItemComponent</text>
</g>
<!-- SpentItemComponent&#45;&gt;HomePageModule -->
<g id="edge5" class="edge">
<title>SpentItemComponent&#45;&gt;HomePageModule</title>
<path fill="none" stroke="black" d="M435,-122.27C435,-140.56 435,-166 435,-166 435,-166 706.25,-166 706.25,-166"/>
<polygon fill="black" stroke="black" points="706.25,-169.5 716.25,-166 706.25,-162.5 706.25,-169.5"/>
</g>
<!-- VehicleFormComponent -->
<g id="node6" class="node">
<title>VehicleFormComponent</title>
<polygon fill="#ffffb3" stroke="black" points="347.7,-122 192.3,-122 192.3,-86 347.7,-86 347.7,-122"/>
<text text-anchor="middle" x="270" y="-99.8" font-family="Times,serif" font-size="14.00">VehicleFormComponent</text>
</g>
<!-- VehicleFormComponent&#45;&gt;HomePageModule -->
<g id="edge6" class="edge">
<title>VehicleFormComponent&#45;&gt;HomePageModule</title>
<path fill="none" stroke="black" d="M270,-122.13C270,-142.57 270,-173 270,-173 270,-173 706.35,-173 706.35,-173"/>
<polygon fill="black" stroke="black" points="706.35,-176.5 716.35,-173 706.35,-169.5 706.35,-176.5"/>
</g>
<!-- VehicleItemComponent -->
<g id="node7" class="node">
<title>VehicleItemComponent</title>
<polygon fill="#ffffb3" stroke="black" points="174.02,-122 23.98,-122 23.98,-86 174.02,-86 174.02,-122"/>
<text text-anchor="middle" x="99" y="-99.8" font-family="Times,serif" font-size="14.00">VehicleItemComponent</text>
</g>
<!-- VehicleItemComponent&#45;&gt;HomePageModule -->
<g id="edge7" class="edge">
<title>VehicleItemComponent&#45;&gt;HomePageModule</title>
<path fill="none" stroke="black" d="M99,-122.01C99,-144.49 99,-180 99,-180 99,-180 706.24,-180 706.24,-180"/>
<polygon fill="black" stroke="black" points="706.24,-183.5 716.24,-180 706.24,-176.5 706.24,-183.5"/>
</g>
<!-- HomePageRoutingModule -->
<g id="node9" class="node">
<title>HomePageRoutingModule</title>
<polygon fill="#8dd3c7" stroke="black" points="1503.09,-122 1500.09,-126 1479.09,-126 1476.09,-122 1336.91,-122 1336.91,-86 1503.09,-86 1503.09,-122"/>
<text text-anchor="middle" x="1420" y="-99.8" font-family="Times,serif" font-size="14.00">HomePageRoutingModule</text>
</g>
<!-- HomePageRoutingModule&#45;&gt;HomePageModule -->
<g id="edge8" class="edge">
<title>HomePageRoutingModule&#45;&gt;HomePageModule</title>
<path fill="none" stroke="black" d="M1420,-122.01C1420,-144.49 1420,-180 1420,-180 1420,-180 847.49,-180 847.49,-180"/>
<polygon fill="black" stroke="black" points="847.49,-176.5 837.49,-180 847.49,-183.5 847.49,-176.5"/>
</g>
<!-- SharedModule -->
<g id="node10" class="node">
<title>SharedModule</title>
<polygon fill="#8dd3c7" stroke="black" points="1319.42,-122 1316.42,-126 1295.42,-126 1292.42,-122 1220.58,-122 1220.58,-86 1319.42,-86 1319.42,-122"/>
<text text-anchor="middle" x="1270" y="-99.8" font-family="Times,serif" font-size="14.00">SharedModule</text>
</g>
<!-- SharedModule&#45;&gt;HomePageModule -->
<g id="edge9" class="edge">
<title>SharedModule&#45;&gt;HomePageModule</title>
<path fill="none" stroke="black" d="M1270,-122.13C1270,-142.57 1270,-173 1270,-173 1270,-173 847.95,-173 847.95,-173"/>
<polygon fill="black" stroke="black" points="847.95,-169.5 837.95,-173 847.95,-176.5 847.95,-169.5"/>
</g>
</g>
</svg>
