<?xml version="1.0" encoding="UTF-8" standalone="no"?>
<!DOCTYPE svg PUBLIC "-//W3C//DTD SVG 1.1//EN"
 "http://www.w3.org/Graphics/SVG/1.1/DTD/svg11.dtd">
<!-- Generated by graphviz version 2.47.0 (20210316.0004)
 -->
<!-- Title: dependencies Pages: 1 -->
<svg width="1535pt" height="211pt"
 viewBox="0.00 0.00 1535.00 211.00" xmlns="http://www.w3.org/2000/svg" xmlns:xlink="http://www.w3.org/1999/xlink">
<g id="graph0" class="graph" transform="scale(1 1) rotate(0) translate(4 207)">
<title>dependencies</title>
<polygon fill="white" stroke="transparent" points="-4,4 -4,-207 1531,-207 1531,4 -4,4"/>
<text text-anchor="start" x="742.51" y="-42.4" font-family="Times-12" font-weight="bold" font-size="14.00">Legend</text>
<polygon fill="#ffffb3" stroke="transparent" points="529.5,-10 529.5,-30 549.5,-30 549.5,-10 529.5,-10"/>
<text text-anchor="start" x="553.13" y="-15.4" font-family="Times-12" font-size="14.00"> &#160;Declarations</text>
<polygon fill="#8dd3c7" stroke="transparent" points="642.5,-10 642.5,-30 662.5,-30 662.5,-10 642.5,-10"/>
<text text-anchor="start" x="666.23" y="-15.4" font-family="Times-12" font-size="14.00"> &#160;Module</text>
<polygon fill="#80b1d3" stroke="transparent" points="728.5,-10 728.5,-30 748.5,-30 748.5,-10 728.5,-10"/>
<text text-anchor="start" x="752.28" y="-15.4" font-family="Times-12" font-size="14.00"> &#160;Bootstrap</text>
<polygon fill="#fdb462" stroke="transparent" points="825.5,-10 825.5,-30 845.5,-30 845.5,-10 825.5,-10"/>
<text text-anchor="start" x="849.17" y="-15.4" font-family="Times-12" font-size="14.00"> &#160;Providers</text>
<polygon fill="#fb8072" stroke="transparent" points="921.5,-10 921.5,-30 941.5,-30 941.5,-10 921.5,-10"/>
<text text-anchor="start" x="945.23" y="-15.4" font-family="Times-12" font-size="14.00"> &#160;Exports</text>
<g id="clust1" class="cluster">
<title>cluster_HomePageModule</title>
<polygon fill="none" stroke="black" stroke-dasharray="1,5" points="8,-70 8,-195 1519,-195 1519,-70 8,-70"/>
</g>
<g id="clust2" class="cluster">
<title>cluster_HomePageModule_declarations</title>
<polygon fill="none" stroke="black" points="322,-78 322,-130 1511,-130 1511,-78 322,-78"/>
</g>
<g id="clust10" class="cluster">
<title>cluster_HomePageModule_imports</title>
<polygon fill="none" stroke="black" points="16,-78 16,-130 314,-130 314,-78 16,-78"/>
</g>
<!-- HomePage -->
<g id="node1" class="node">
<title>HomePage</title>
<polygon fill="#ffffb3" stroke="black" points="1502.92,-122 1425.08,-122 1425.08,-86 1502.92,-86 1502.92,-122"/>
<text text-anchor="middle" x="1464" y="-99.8" font-family="Times,serif" font-size="14.00">HomePage</text>
</g>
<!-- HomePageModule -->
<g id="node8" class="node">
<title>HomePageModule</title>
<polygon fill="#8dd3c7" stroke="black" points="801.47,-187 798.47,-191 777.47,-191 774.47,-187 680.53,-187 680.53,-151 801.47,-151 801.47,-187"/>
<text text-anchor="middle" x="741" y="-164.8" font-family="Times,serif" font-size="14.00">HomePageModule</text>
</g>
<!-- HomePage&#45;&gt;HomePageModule -->
<g id="edge1" class="edge">
<title>HomePage&#45;&gt;HomePageModule</title>
<path fill="none" stroke="black" d="M1464,-122.01C1464,-144.49 1464,-180 1464,-180 1464,-180 811.71,-180 811.71,-180"/>
<polygon fill="black" stroke="black" points="811.71,-176.5 801.71,-180 811.71,-183.5 811.71,-176.5"/>
</g>
<!-- ProviderItemSelectableComponent -->
<g id="node2" class="node">
<title>ProviderItemSelectableComponent</title>
<polygon fill="#ffffb3" stroke="black" points="1407.23,-122 1194.77,-122 1194.77,-86 1407.23,-86 1407.23,-122"/>
<text text-anchor="middle" x="1301" y="-99.8" font-family="Times,serif" font-size="14.00">ProviderItemSelectableComponent</text>
</g>
<!-- ProviderItemSelectableComponent&#45;&gt;HomePageModule -->
<g id="edge2" class="edge">
<title>ProviderItemSelectableComponent&#45;&gt;HomePageModule</title>
<path fill="none" stroke="black" d="M1301,-122.13C1301,-142.57 1301,-173 1301,-173 1301,-173 811.73,-173 811.73,-173"/>
<polygon fill="black" stroke="black" points="811.73,-169.5 801.73,-173 811.73,-176.5 811.73,-169.5"/>
</g>
<!-- ProviderSelectableComponent -->
<g id="node3" class="node">
<title>ProviderSelectableComponent</title>
<polygon fill="#ffffb3" stroke="black" points="1176.57,-122 989.43,-122 989.43,-86 1176.57,-86 1176.57,-122"/>
<text text-anchor="middle" x="1083" y="-99.8" font-family="Times,serif" font-size="14.00">ProviderSelectableComponent</text>
</g>
<!-- ProviderSelectableComponent&#45;&gt;HomePageModule -->
<g id="edge3" class="edge">
<title>ProviderSelectableComponent&#45;&gt;HomePageModule</title>
<path fill="none" stroke="black" d="M1083,-122.27C1083,-140.56 1083,-166 1083,-166 1083,-166 811.75,-166 811.75,-166"/>
<polygon fill="black" stroke="black" points="811.75,-162.5 801.75,-166 811.75,-169.5 811.75,-162.5"/>
</g>
<!-- SpentFormComponent -->
<g id="node4" class="node">
<title>SpentFormComponent</title>
<polygon fill="#ffffb3" stroke="black" points="971.55,-122 828.45,-122 828.45,-86 971.55,-86 971.55,-122"/>
<text text-anchor="middle" x="900" y="-99.8" font-family="Times,serif" font-size="14.00">SpentFormComponent</text>
</g>
<!-- SpentFormComponent&#45;&gt;HomePageModule -->
<g id="edge4" class="edge">
<title>SpentFormComponent&#45;&gt;HomePageModule</title>
<path fill="none" stroke="black" d="M900,-122.01C900,-138.05 900,-159 900,-159 900,-159 811.56,-159 811.56,-159"/>
<polygon fill="black" stroke="black" points="811.56,-155.5 801.56,-159 811.56,-162.5 811.56,-155.5"/>
</g>
<!-- SpentItemComponent -->
<g id="node5" class="node">
<title>SpentItemComponent</title>
<polygon fill="#ffffb3" stroke="black" points="810.38,-122 671.62,-122 671.62,-86 810.38,-86 810.38,-122"/>
<text text-anchor="middle" x="741" y="-99.8" font-family="Times,serif" font-size="14.00">SpentItemComponent</text>
</g>
<!-- SpentItemComponent&#45;&gt;HomePageModule -->
<g id="edge5" class="edge">
<title>SpentItemComponent&#45;&gt;HomePageModule</title>
<path fill="none" stroke="black" d="M741,-122.11C741,-122.11 741,-140.99 741,-140.99"/>
<polygon fill="black" stroke="black" points="737.5,-140.99 741,-150.99 744.5,-140.99 737.5,-140.99"/>
</g>
<!-- VehicleFormComponent -->
<g id="node6" class="node">
<title>VehicleFormComponent</title>
<polygon fill="#ffffb3" stroke="black" points="653.7,-122 498.3,-122 498.3,-86 653.7,-86 653.7,-122"/>
<text text-anchor="middle" x="576" y="-99.8" font-family="Times,serif" font-size="14.00">VehicleFormComponent</text>
</g>
<!-- VehicleFormComponent&#45;&gt;HomePageModule -->
<g id="edge6" class="edge">
<title>VehicleFormComponent&#45;&gt;HomePageModule</title>
<path fill="none" stroke="black" d="M576,-122.01C576,-138.05 576,-159 576,-159 576,-159 670.5,-159 670.5,-159"/>
<polygon fill="black" stroke="black" points="670.5,-162.5 680.5,-159 670.5,-155.5 670.5,-162.5"/>
</g>
<!-- VehicleItemComponent -->
<g id="node7" class="node">
<title>VehicleItemComponent</title>
<polygon fill="#ffffb3" stroke="black" points="480.02,-122 329.98,-122 329.98,-86 480.02,-86 480.02,-122"/>
<text text-anchor="middle" x="405" y="-99.8" font-family="Times,serif" font-size="14.00">VehicleItemComponent</text>
</g>
<!-- VehicleItemComponent&#45;&gt;HomePageModule -->
<g id="edge7" class="edge">
<title>VehicleItemComponent&#45;&gt;HomePageModule</title>
<path fill="none" stroke="black" d="M405,-122.27C405,-140.56 405,-166 405,-166 405,-166 670.15,-166 670.15,-166"/>
<polygon fill="black" stroke="black" points="670.15,-169.5 680.15,-166 670.15,-162.5 670.15,-169.5"/>
</g>
<!-- HomePageRoutingModule -->
<g id="node9" class="node">
<title>HomePageRoutingModule</title>
<polygon fill="#8dd3c7" stroke="black" points="306.09,-122 303.09,-126 282.09,-126 279.09,-122 139.91,-122 139.91,-86 306.09,-86 306.09,-122"/>
<text text-anchor="middle" x="223" y="-99.8" font-family="Times,serif" font-size="14.00">HomePageRoutingModule</text>
</g>
<!-- HomePageRoutingModule&#45;&gt;HomePageModule -->
<g id="edge8" class="edge">
<title>HomePageRoutingModule&#45;&gt;HomePageModule</title>
<path fill="none" stroke="black" d="M223,-122.13C223,-142.57 223,-173 223,-173 223,-173 670.31,-173 670.31,-173"/>
<polygon fill="black" stroke="black" points="670.31,-176.5 680.31,-173 670.31,-169.5 670.31,-176.5"/>
</g>
<!-- SharedModule -->
<g id="node10" class="node">
<title>SharedModule</title>
<polygon fill="#8dd3c7" stroke="black" points="122.42,-122 119.42,-126 98.42,-126 95.42,-122 23.58,-122 23.58,-86 122.42,-86 122.42,-122"/>
<text text-anchor="middle" x="73" y="-99.8" font-family="Times,serif" font-size="14.00">SharedModule</text>
</g>
<!-- SharedModule&#45;&gt;HomePageModule -->
<g id="edge9" class="edge">
<title>SharedModule&#45;&gt;HomePageModule</title>
<path fill="none" stroke="black" d="M73,-122.01C73,-144.49 73,-180 73,-180 73,-180 670.25,-180 670.25,-180"/>
<polygon fill="black" stroke="black" points="670.25,-183.5 680.25,-180 670.25,-176.5 670.25,-183.5"/>
</g>
</g>
</svg>
