<?xml version="1.0" encoding="UTF-8" standalone="no"?>
<!DOCTYPE svg PUBLIC "-//W3C//DTD SVG 1.1//EN"
 "http://www.w3.org/Graphics/SVG/1.1/DTD/svg11.dtd">
<!-- Generated by graphviz version 2.47.0 (20210316.0004)
 -->
<!-- Title: dependencies Pages: 1 -->
<svg width="1175pt" height="284pt"
 viewBox="0.00 0.00 1175.00 284.00" xmlns="http://www.w3.org/2000/svg" xmlns:xlink="http://www.w3.org/1999/xlink">
<g id="graph0" class="graph" transform="scale(1 1) rotate(0) translate(4 280)">
<title>dependencies</title>
<polygon fill="white" stroke="transparent" points="-4,4 -4,-280 1171,-280 1171,4 -4,4"/>
<text text-anchor="start" x="562.51" y="-42.4" font-family="Times-12" font-weight="bold" font-size="14.00">Legend</text>
<polygon fill="#ffffb3" stroke="transparent" points="349.5,-10 349.5,-30 369.5,-30 369.5,-10 349.5,-10"/>
<text text-anchor="start" x="373.13" y="-15.4" font-family="Times-12" font-size="14.00"> &#160;Declarations</text>
<polygon fill="#8dd3c7" stroke="transparent" points="462.5,-10 462.5,-30 482.5,-30 482.5,-10 462.5,-10"/>
<text text-anchor="start" x="486.23" y="-15.4" font-family="Times-12" font-size="14.00"> &#160;Module</text>
<polygon fill="#80b1d3" stroke="transparent" points="548.5,-10 548.5,-30 568.5,-30 568.5,-10 548.5,-10"/>
<text text-anchor="start" x="572.28" y="-15.4" font-family="Times-12" font-size="14.00"> &#160;Bootstrap</text>
<polygon fill="#fdb462" stroke="transparent" points="645.5,-10 645.5,-30 665.5,-30 665.5,-10 645.5,-10"/>
<text text-anchor="start" x="669.17" y="-15.4" font-family="Times-12" font-size="14.00"> &#160;Providers</text>
<polygon fill="#fb8072" stroke="transparent" points="741.5,-10 741.5,-30 761.5,-30 761.5,-10 741.5,-10"/>
<text text-anchor="start" x="765.23" y="-15.4" font-family="Times-12" font-size="14.00"> &#160;Exports</text>
<g id="clust1" class="cluster">
<title>cluster_SharedModule</title>
<polygon fill="none" stroke="black" stroke-dasharray="1,5" points="8,-70 8,-268 1159,-268 1159,-70 8,-70"/>
</g>
<g id="clust12" class="cluster">
<title>cluster_SharedModule_exports</title>
<polygon fill="none" stroke="black" points="16,-208 16,-260 1151,-260 1151,-208 16,-208"/>
</g>
<g id="clust2" class="cluster">
<title>cluster_SharedModule_declarations</title>
<polygon fill="none" stroke="black" points="34,-78 34,-130 1143,-130 1143,-78 34,-78"/>
</g>
<!-- ButtonDirective -->
<g id="node1" class="node">
<title>ButtonDirective</title>
<polygon fill="#ffffb3" stroke="black" points="1135.2,-122 1028.8,-122 1028.8,-86 1135.2,-86 1135.2,-122"/>
<text text-anchor="middle" x="1082" y="-99.8" font-family="Times,serif" font-size="14.00">ButtonDirective</text>
</g>
<!-- SharedModule -->
<g id="node9" class="node">
<title>SharedModule</title>
<polygon fill="#8dd3c7" stroke="black" points="616.42,-187 613.42,-191 592.42,-191 589.42,-187 517.58,-187 517.58,-151 616.42,-151 616.42,-187"/>
<text text-anchor="middle" x="567" y="-164.8" font-family="Times,serif" font-size="14.00">SharedModule</text>
</g>
<!-- ButtonDirective&#45;&gt;SharedModule -->
<g id="edge1" class="edge">
<title>ButtonDirective&#45;&gt;SharedModule</title>
<path fill="none" stroke="black" d="M1101.12,-122.22C1101.12,-140.83 1101.12,-167 1101.12,-167 1101.12,-167 626.29,-167 626.29,-167"/>
<polygon fill="black" stroke="black" points="626.29,-163.5 616.29,-167 626.29,-170.5 626.29,-163.5"/>
</g>
<!-- CapitalizePipe -->
<g id="node2" class="node">
<title>CapitalizePipe</title>
<polygon fill="#ffffb3" stroke="black" points="1010.65,-122 913.35,-122 913.35,-86 1010.65,-86 1010.65,-122"/>
<text text-anchor="middle" x="962" y="-99.8" font-family="Times,serif" font-size="14.00">CapitalizePipe</text>
</g>
<!-- CapitalizePipe&#45;&gt;SharedModule -->
<g id="edge2" class="edge">
<title>CapitalizePipe&#45;&gt;SharedModule</title>
<path fill="none" stroke="black" d="M978.69,-122.02C978.69,-139.37 978.69,-163 978.69,-163 978.69,-163 626.25,-163 626.25,-163"/>
<polygon fill="black" stroke="black" points="626.25,-159.5 616.25,-163 626.25,-166.5 626.25,-159.5"/>
</g>
<!-- ItemDirective -->
<g id="node3" class="node">
<title>ItemDirective</title>
<polygon fill="#ffffb3" stroke="black" points="894.74,-122 801.26,-122 801.26,-86 894.74,-86 894.74,-122"/>
<text text-anchor="middle" x="848" y="-99.8" font-family="Times,serif" font-size="14.00">ItemDirective</text>
</g>
<!-- ItemDirective&#45;&gt;SharedModule -->
<g id="edge3" class="edge">
<title>ItemDirective&#45;&gt;SharedModule</title>
<path fill="none" stroke="black" d="M863.62,-122.01C863.62,-138.05 863.62,-159 863.62,-159 863.62,-159 626.31,-159 626.31,-159"/>
<polygon fill="black" stroke="black" points="626.31,-155.5 616.31,-159 626.31,-162.5 626.31,-155.5"/>
</g>
<!-- NumberFormatPipe -->
<g id="node4" class="node">
<title>NumberFormatPipe</title>
<polygon fill="#ffffb3" stroke="black" points="783.7,-122 656.3,-122 656.3,-86 783.7,-86 783.7,-122"/>
<text text-anchor="middle" x="720" y="-99.8" font-family="Times,serif" font-size="14.00">NumberFormatPipe</text>
</g>
<!-- NumberFormatPipe&#45;&gt;SharedModule -->
<g id="edge4" class="edge">
<title>NumberFormatPipe&#45;&gt;SharedModule</title>
<path fill="none" stroke="black" d="M698.05,-122.12C698.05,-136.78 698.05,-155 698.05,-155 698.05,-155 626.54,-155 626.54,-155"/>
<polygon fill="black" stroke="black" points="626.54,-151.5 616.54,-155 626.54,-158.5 626.54,-151.5"/>
</g>
<!-- SelectedCardDirective -->
<g id="node5" class="node">
<title>SelectedCardDirective</title>
<polygon fill="#ffffb3" stroke="black" points="638.22,-122 495.78,-122 495.78,-86 638.22,-86 638.22,-122"/>
<text text-anchor="middle" x="567" y="-99.8" font-family="Times,serif" font-size="14.00">SelectedCardDirective</text>
</g>
<!-- SelectedCardDirective&#45;&gt;SharedModule -->
<g id="edge5" class="edge">
<title>SelectedCardDirective&#45;&gt;SharedModule</title>
<path fill="none" stroke="black" d="M567,-122.11C567,-122.11 567,-140.99 567,-140.99"/>
<polygon fill="black" stroke="black" points="563.5,-140.99 567,-150.99 570.5,-140.99 563.5,-140.99"/>
</g>
<!-- ToolbarComponent -->
<g id="node6" class="node">
<title>ToolbarComponent</title>
<polygon fill="#ffffb3" stroke="black" points="477.65,-122 352.35,-122 352.35,-86 477.65,-86 477.65,-122"/>
<text text-anchor="middle" x="415" y="-99.8" font-family="Times,serif" font-size="14.00">ToolbarComponent</text>
</g>
<!-- ToolbarComponent&#45;&gt;SharedModule -->
<g id="edge6" class="edge">
<title>ToolbarComponent&#45;&gt;SharedModule</title>
<path fill="none" stroke="black" d="M473.2,-122.19C473.2,-137.18 473.2,-156 473.2,-156 473.2,-156 507.63,-156 507.63,-156"/>
<polygon fill="black" stroke="black" points="507.63,-159.5 517.63,-156 507.63,-152.5 507.63,-159.5"/>
</g>
<!-- UpperCamelCasePipe -->
<g id="node7" class="node">
<title>UpperCamelCasePipe</title>
<polygon fill="#ffffb3" stroke="black" points="333.63,-122 194.37,-122 194.37,-86 333.63,-86 333.63,-122"/>
<text text-anchor="middle" x="264" y="-99.8" font-family="Times,serif" font-size="14.00">UpperCamelCasePipe</text>
</g>
<!-- UpperCamelCasePipe&#45;&gt;SharedModule -->
<g id="edge7" class="edge">
<title>UpperCamelCasePipe&#45;&gt;SharedModule</title>
<path fill="none" stroke="black" d="M329.73,-122.03C329.73,-138.4 329.73,-160 329.73,-160 329.73,-160 507.55,-160 507.55,-160"/>
<polygon fill="black" stroke="black" points="507.55,-163.5 517.55,-160 507.55,-156.5 507.55,-163.5"/>
</g>
<!-- UpperCamelCasePipe&#45;&gt;SharedModule -->
<g id="edge8" class="edge">
<title>UpperCamelCasePipe&#45;&gt;SharedModule</title>
<path fill="none" stroke="black" d="M325.65,-122.3C325.65,-140.27 325.65,-165 325.65,-165 325.65,-165 507.58,-165 507.58,-165"/>
<polygon fill="black" stroke="black" points="507.58,-168.5 517.58,-165 507.58,-161.5 507.58,-168.5"/>
</g>
<!-- UserItemComponent -->
<g id="node8" class="node">
<title>UserItemComponent</title>
<polygon fill="#ffffb3" stroke="black" points="175.92,-122 42.08,-122 42.08,-86 175.92,-86 175.92,-122"/>
<text text-anchor="middle" x="109" y="-99.8" font-family="Times,serif" font-size="14.00">UserItemComponent</text>
</g>
<!-- UserItemComponent&#45;&gt;SharedModule -->
<g id="edge9" class="edge">
<title>UserItemComponent&#45;&gt;SharedModule</title>
<path fill="none" stroke="black" d="M168.08,-122.11C168.08,-141.34 168.08,-169 168.08,-169 168.08,-169 507.68,-169 507.68,-169"/>
<polygon fill="black" stroke="black" points="507.68,-172.5 517.68,-169 507.68,-165.5 507.68,-172.5"/>
</g>
<!-- ButtonDirective  -->
<g id="node10" class="node">
<title>ButtonDirective </title>
<polygon fill="#fb8072" stroke="black" points="1142.7,-252 1033.3,-252 1033.3,-216 1142.7,-216 1142.7,-252"/>
<text text-anchor="middle" x="1088" y="-229.8" font-family="Times,serif" font-size="14.00">ButtonDirective </text>
</g>
<!-- SharedModule&#45;&gt;ButtonDirective  -->
<g id="edge10" class="edge">
<title>SharedModule&#45;&gt;ButtonDirective </title>
<path fill="none" stroke="black" stroke-dasharray="5,2" d="M616.32,-171C742.5,-171 1067.13,-171 1067.13,-171 1067.13,-171 1067.13,-205.78 1067.13,-205.78"/>
<polygon fill="black" stroke="black" points="1063.63,-205.78 1067.13,-215.78 1070.63,-205.78 1063.63,-205.78"/>
</g>
<!-- CapitalizePipe  -->
<g id="node11" class="node">
<title>CapitalizePipe </title>
<polygon fill="#fb8072" stroke="black" points="1015.65,-252 914.35,-252 914.35,-216 1015.65,-216 1015.65,-252"/>
<text text-anchor="middle" x="965" y="-229.8" font-family="Times,serif" font-size="14.00">CapitalizePipe </text>
</g>
<!-- SharedModule&#45;&gt;CapitalizePipe  -->
<g id="edge11" class="edge">
<title>SharedModule&#45;&gt;CapitalizePipe </title>
<path fill="none" stroke="black" stroke-dasharray="5,2" d="M616.23,-175C718.93,-175 946.56,-175 946.56,-175 946.56,-175 946.56,-205.98 946.56,-205.98"/>
<polygon fill="black" stroke="black" points="943.06,-205.98 946.56,-215.98 950.06,-205.98 943.06,-205.98"/>
</g>
<!-- ItemDirective  -->
<g id="node12" class="node">
<title>ItemDirective </title>
<polygon fill="#fb8072" stroke="black" points="896.74,-252 799.26,-252 799.26,-216 896.74,-216 896.74,-252"/>
<text text-anchor="middle" x="848" y="-229.8" font-family="Times,serif" font-size="14.00">ItemDirective </text>
</g>
<!-- SharedModule&#45;&gt;ItemDirective  -->
<g id="edge12" class="edge">
<title>SharedModule&#45;&gt;ItemDirective </title>
<path fill="none" stroke="black" stroke-dasharray="5,2" d="M616.29,-179C693.04,-179 832.38,-179 832.38,-179 832.38,-179 832.38,-205.99 832.38,-205.99"/>
<polygon fill="black" stroke="black" points="828.88,-205.99 832.38,-215.99 835.88,-205.99 828.88,-205.99"/>
</g>
<!-- NumberFormatPipe  -->
<g id="node13" class="node">
<title>NumberFormatPipe </title>
<polygon fill="#fb8072" stroke="black" points="781.2,-252 650.8,-252 650.8,-216 781.2,-216 781.2,-252"/>
<text text-anchor="middle" x="716" y="-229.8" font-family="Times,serif" font-size="14.00">NumberFormatPipe </text>
</g>
<!-- SharedModule&#45;&gt;NumberFormatPipe  -->
<g id="edge13" class="edge">
<title>SharedModule&#45;&gt;NumberFormatPipe </title>
<path fill="none" stroke="black" stroke-dasharray="5,2" d="M616.49,-183C667.52,-183 739.7,-183 739.7,-183 739.7,-183 739.7,-205.88 739.7,-205.88"/>
<polygon fill="black" stroke="black" points="736.2,-205.88 739.7,-215.88 743.2,-205.88 736.2,-205.88"/>
</g>
<!-- SelectedCardDirective  -->
<g id="node14" class="node">
<title>SelectedCardDirective </title>
<polygon fill="#fb8072" stroke="black" points="633.22,-252 486.78,-252 486.78,-216 633.22,-216 633.22,-252"/>
<text text-anchor="middle" x="560" y="-229.8" font-family="Times,serif" font-size="14.00">SelectedCardDirective </text>
</g>
<!-- SharedModule&#45;&gt;SelectedCardDirective  -->
<g id="edge14" class="edge">
<title>SharedModule&#45;&gt;SelectedCardDirective </title>
<path fill="none" stroke="black" stroke-dasharray="5,2" d="M567,-187.11C567,-187.11 567,-205.99 567,-205.99"/>
<polygon fill="black" stroke="black" points="563.5,-205.99 567,-215.99 570.5,-205.99 563.5,-205.99"/>
</g>
<!-- ToolbarComponent  -->
<g id="node15" class="node">
<title>ToolbarComponent </title>
<polygon fill="#fb8072" stroke="black" points="468.65,-252 339.35,-252 339.35,-216 468.65,-216 468.65,-252"/>
<text text-anchor="middle" x="404" y="-229.8" font-family="Times,serif" font-size="14.00">ToolbarComponent </text>
</g>
<!-- SharedModule&#45;&gt;ToolbarComponent  -->
<g id="edge15" class="edge">
<title>SharedModule&#45;&gt;ToolbarComponent </title>
<path fill="none" stroke="black" stroke-dasharray="5,2" d="M517.44,-183C471.56,-183 410.38,-183 410.38,-183 410.38,-183 410.38,-205.88 410.38,-205.88"/>
<polygon fill="black" stroke="black" points="406.88,-205.88 410.38,-215.88 413.88,-205.88 406.88,-205.88"/>
</g>
<!-- UpperCamelCasePipe  -->
<g id="node16" class="node">
<title>UpperCamelCasePipe </title>
<polygon fill="#fb8072" stroke="black" points="321.63,-252 178.37,-252 178.37,-216 321.63,-216 321.63,-252"/>
<text text-anchor="middle" x="250" y="-229.8" font-family="Times,serif" font-size="14.00">UpperCamelCasePipe </text>
</g>
<!-- SharedModule&#45;&gt;UpperCamelCasePipe  -->
<g id="edge16" class="edge">
<title>SharedModule&#45;&gt;UpperCamelCasePipe </title>
<path fill="none" stroke="black" stroke-dasharray="5,2" d="M517.68,-178C430.4,-178 257.88,-178 257.88,-178 257.88,-178 257.88,-205.97 257.88,-205.97"/>
<polygon fill="black" stroke="black" points="254.38,-205.97 257.88,-215.97 261.38,-205.97 254.38,-205.97"/>
</g>
<!-- UserItemComponent  -->
<g id="node17" class="node">
<title>UserItemComponent </title>
<polygon fill="#fb8072" stroke="black" points="160.42,-252 23.58,-252 23.58,-216 160.42,-216 160.42,-252"/>
<text text-anchor="middle" x="92" y="-229.8" font-family="Times,serif" font-size="14.00">UserItemComponent </text>
</g>
<!-- SharedModule&#45;&gt;UserItemComponent  -->
<g id="edge17" class="edge">
<title>SharedModule&#45;&gt;UserItemComponent </title>
<path fill="none" stroke="black" stroke-dasharray="5,2" d="M517.61,-174C397.78,-174 101.38,-174 101.38,-174 101.38,-174 101.38,-206 101.38,-206"/>
<polygon fill="black" stroke="black" points="97.88,-206 101.38,-216 104.88,-206 97.88,-206"/>
</g>
</g>
</svg>
