<?xml version="1.0" encoding="UTF-8" standalone="no"?>
<!DOCTYPE svg PUBLIC "-//W3C//DTD SVG 1.1//EN"
 "http://www.w3.org/Graphics/SVG/1.1/DTD/svg11.dtd">
<!-- Generated by graphviz version 2.47.0 (20210316.0004)
 -->
<!-- Title: dependencies Pages: 1 -->
<svg width="640pt" height="211pt"
 viewBox="0.00 0.00 640.00 211.00" xmlns="http://www.w3.org/2000/svg" xmlns:xlink="http://www.w3.org/1999/xlink">
<g id="graph0" class="graph" transform="scale(1 1) rotate(0) translate(4 207)">
<title>dependencies</title>
<polygon fill="white" stroke="transparent" points="-4,4 -4,-207 636,-207 636,4 -4,4"/>
<text text-anchor="start" x="295.01" y="-42.4" font-family="Times-12" font-weight="bold" font-size="14.00">Legend</text>
<polygon fill="#ffffb3" stroke="transparent" points="82,-10 82,-30 102,-30 102,-10 82,-10"/>
<text text-anchor="start" x="105.63" y="-15.4" font-family="Times-12" font-size="14.00"> &#160;Declarations</text>
<polygon fill="#8dd3c7" stroke="transparent" points="195,-10 195,-30 215,-30 215,-10 195,-10"/>
<text text-anchor="start" x="218.73" y="-15.4" font-family="Times-12" font-size="14.00"> &#160;Module</text>
<polygon fill="#80b1d3" stroke="transparent" points="281,-10 281,-30 301,-30 301,-10 281,-10"/>
<text text-anchor="start" x="304.78" y="-15.4" font-family="Times-12" font-size="14.00"> &#160;Bootstrap</text>
<polygon fill="#fdb462" stroke="transparent" points="378,-10 378,-30 398,-30 398,-10 378,-10"/>
<text text-anchor="start" x="401.67" y="-15.4" font-family="Times-12" font-size="14.00"> &#160;Providers</text>
<polygon fill="#fb8072" stroke="transparent" points="474,-10 474,-30 494,-30 494,-10 474,-10"/>
<text text-anchor="start" x="497.73" y="-15.4" font-family="Times-12" font-size="14.00"> &#160;Exports</text>
<g id="clust1" class="cluster">
<title>cluster_AboutMePageModule</title>
<polygon fill="none" stroke="black" stroke-dasharray="1,5" points="8,-70 8,-195 624,-195 624,-70 8,-70"/>
</g>
<g id="clust2" class="cluster">
<title>cluster_AboutMePageModule_declarations</title>
<polygon fill="none" stroke="black" points="342,-78 342,-130 616,-130 616,-78 342,-78"/>
</g>
<g id="clust5" class="cluster">
<title>cluster_AboutMePageModule_imports</title>
<polygon fill="none" stroke="black" points="16,-78 16,-130 334,-130 334,-78 16,-78"/>
</g>
<!-- AboutMePage -->
<g id="node1" class="node">
<title>AboutMePage</title>
<polygon fill="#ffffb3" stroke="black" points="608.37,-122 511.63,-122 511.63,-86 608.37,-86 608.37,-122"/>
<text text-anchor="middle" x="560" y="-99.8" font-family="Times,serif" font-size="14.00">AboutMePage</text>
</g>
<!-- AboutMePageModule -->
<g id="node3" class="node">
<title>AboutMePageModule</title>
<polygon fill="#8dd3c7" stroke="black" points="397.42,-187 394.42,-191 373.42,-191 370.42,-187 256.58,-187 256.58,-151 397.42,-151 397.42,-187"/>
<text text-anchor="middle" x="327" y="-164.8" font-family="Times,serif" font-size="14.00">AboutMePageModule</text>
</g>
<!-- AboutMePage&#45;&gt;AboutMePageModule -->
<g id="edge1" class="edge">
<title>AboutMePage&#45;&gt;AboutMePageModule</title>
<path fill="none" stroke="black" d="M560,-122.11C560,-141.34 560,-169 560,-169 560,-169 407.22,-169 407.22,-169"/>
<polygon fill="black" stroke="black" points="407.22,-165.5 397.22,-169 407.22,-172.5 407.22,-165.5"/>
</g>
<!-- CardAboutComponent -->
<g id="node2" class="node">
<title>CardAboutComponent</title>
<polygon fill="#ffffb3" stroke="black" points="493.54,-122 350.46,-122 350.46,-86 493.54,-86 493.54,-122"/>
<text text-anchor="middle" x="422" y="-99.8" font-family="Times,serif" font-size="14.00">CardAboutComponent</text>
</g>
<!-- CardAboutComponent&#45;&gt;AboutMePageModule -->
<g id="edge2" class="edge">
<title>CardAboutComponent&#45;&gt;AboutMePageModule</title>
<path fill="none" stroke="black" d="M373.72,-122.11C373.72,-122.11 373.72,-140.99 373.72,-140.99"/>
<polygon fill="black" stroke="black" points="370.22,-140.99 373.72,-150.99 377.22,-140.99 370.22,-140.99"/>
</g>
<!-- AboutMePageRoutingModule -->
<g id="node4" class="node">
<title>AboutMePageRoutingModule</title>
<polygon fill="#8dd3c7" stroke="black" points="325.54,-122 322.54,-126 301.54,-126 298.54,-122 140.46,-122 140.46,-86 325.54,-86 325.54,-122"/>
<text text-anchor="middle" x="233" y="-99.8" font-family="Times,serif" font-size="14.00">AboutMePageRoutingModule</text>
</g>
<!-- AboutMePageRoutingModule&#45;&gt;AboutMePageModule -->
<g id="edge3" class="edge">
<title>AboutMePageRoutingModule&#45;&gt;AboutMePageModule</title>
<path fill="none" stroke="black" d="M291.28,-122.11C291.28,-122.11 291.28,-140.99 291.28,-140.99"/>
<polygon fill="black" stroke="black" points="287.78,-140.99 291.28,-150.99 294.78,-140.99 287.78,-140.99"/>
</g>
<!-- SharedModule -->
<g id="node5" class="node">
<title>SharedModule</title>
<polygon fill="#8dd3c7" stroke="black" points="122.42,-122 119.42,-126 98.42,-126 95.42,-122 23.58,-122 23.58,-86 122.42,-86 122.42,-122"/>
<text text-anchor="middle" x="73" y="-99.8" font-family="Times,serif" font-size="14.00">SharedModule</text>
</g>
<!-- SharedModule&#45;&gt;AboutMePageModule -->
<g id="edge4" class="edge">
<title>SharedModule&#45;&gt;AboutMePageModule</title>
<path fill="none" stroke="black" d="M73,-122.11C73,-141.34 73,-169 73,-169 73,-169 246.58,-169 246.58,-169"/>
<polygon fill="black" stroke="black" points="246.58,-172.5 256.58,-169 246.58,-165.5 246.58,-172.5"/>
</g>
</g>
</svg>
