<?xml version="1.0" encoding="UTF-8" standalone="no"?>
<!DOCTYPE svg PUBLIC "-//W3C//DTD SVG 1.1//EN"
 "http://www.w3.org/Graphics/SVG/1.1/DTD/svg11.dtd">
<!-- Generated by graphviz version 2.47.0 (20210316.0004)
 -->
<!-- Title: dependencies Pages: 1 -->
<svg width="504pt" height="211pt"
 viewBox="0.00 0.00 504.00 211.00" xmlns="http://www.w3.org/2000/svg" xmlns:xlink="http://www.w3.org/1999/xlink">
<g id="graph0" class="graph" transform="scale(1 1) rotate(0) translate(4 207)">
<title>dependencies</title>
<polygon fill="white" stroke="transparent" points="-4,4 -4,-207 500,-207 500,4 -4,4"/>
<text text-anchor="start" x="227.01" y="-42.4" font-family="Times-12" font-weight="bold" font-size="14.00">Legend</text>
<polygon fill="#ffffb3" stroke="transparent" points="14,-10 14,-30 34,-30 34,-10 14,-10"/>
<text text-anchor="start" x="37.63" y="-15.4" font-family="Times-12" font-size="14.00"> &#160;Declarations</text>
<polygon fill="#8dd3c7" stroke="transparent" points="127,-10 127,-30 147,-30 147,-10 127,-10"/>
<text text-anchor="start" x="150.73" y="-15.4" font-family="Times-12" font-size="14.00"> &#160;Module</text>
<polygon fill="#80b1d3" stroke="transparent" points="213,-10 213,-30 233,-30 233,-10 213,-10"/>
<text text-anchor="start" x="236.78" y="-15.4" font-family="Times-12" font-size="14.00"> &#160;Bootstrap</text>
<polygon fill="#fdb462" stroke="transparent" points="310,-10 310,-30 330,-30 330,-10 310,-10"/>
<text text-anchor="start" x="333.67" y="-15.4" font-family="Times-12" font-size="14.00"> &#160;Providers</text>
<polygon fill="#fb8072" stroke="transparent" points="406,-10 406,-30 426,-30 426,-10 406,-10"/>
<text text-anchor="start" x="429.73" y="-15.4" font-family="Times-12" font-size="14.00"> &#160;Exports</text>
<g id="clust1" class="cluster">
<title>cluster_WelcomePageModule</title>
<polygon fill="none" stroke="black" stroke-dasharray="1,5" points="21,-70 21,-195 475,-195 475,-70 21,-70"/>
</g>
<g id="clust4" class="cluster">
<title>cluster_WelcomePageModule_imports</title>
<polygon fill="none" stroke="black" points="149,-78 149,-130 467,-130 467,-78 149,-78"/>
</g>
<g id="clust2" class="cluster">
<title>cluster_WelcomePageModule_declarations</title>
<polygon fill="none" stroke="black" points="29,-78 29,-130 141,-130 141,-78 29,-78"/>
</g>
<!-- WelcomePage -->
<g id="node1" class="node">
<title>WelcomePage</title>
<polygon fill="#ffffb3" stroke="black" points="133.35,-122 36.65,-122 36.65,-86 133.35,-86 133.35,-122"/>
<text text-anchor="middle" x="85" y="-99.8" font-family="Times,serif" font-size="14.00">WelcomePage</text>
</g>
<!-- WelcomePageModule -->
<g id="node2" class="node">
<title>WelcomePageModule</title>
<polygon fill="#8dd3c7" stroke="black" points="320.4,-187 317.4,-191 296.4,-191 293.4,-187 179.6,-187 179.6,-151 320.4,-151 320.4,-187"/>
<text text-anchor="middle" x="250" y="-164.8" font-family="Times,serif" font-size="14.00">WelcomePageModule</text>
</g>
<!-- WelcomePage&#45;&gt;WelcomePageModule -->
<g id="edge1" class="edge">
<title>WelcomePage&#45;&gt;WelcomePageModule</title>
<path fill="none" stroke="black" d="M85,-122.11C85,-141.34 85,-169 85,-169 85,-169 169.55,-169 169.55,-169"/>
<polygon fill="black" stroke="black" points="169.55,-172.5 179.55,-169 169.55,-165.5 169.55,-172.5"/>
</g>
<!-- SharedModule -->
<g id="node3" class="node">
<title>SharedModule</title>
<polygon fill="#8dd3c7" stroke="black" points="459.42,-122 456.42,-126 435.42,-126 432.42,-122 360.58,-122 360.58,-86 459.42,-86 459.42,-122"/>
<text text-anchor="middle" x="410" y="-99.8" font-family="Times,serif" font-size="14.00">SharedModule</text>
</g>
<!-- SharedModule&#45;&gt;WelcomePageModule -->
<g id="edge2" class="edge">
<title>SharedModule&#45;&gt;WelcomePageModule</title>
<path fill="none" stroke="black" d="M410,-122.11C410,-141.34 410,-169 410,-169 410,-169 330.64,-169 330.64,-169"/>
<polygon fill="black" stroke="black" points="330.64,-165.5 320.64,-169 330.64,-172.5 330.64,-165.5"/>
</g>
<!-- WelcomePageRoutingModule -->
<g id="node4" class="node">
<title>WelcomePageRoutingModule</title>
<polygon fill="#8dd3c7" stroke="black" points="342.52,-122 339.52,-126 318.52,-126 315.52,-122 157.48,-122 157.48,-86 342.52,-86 342.52,-122"/>
<text text-anchor="middle" x="250" y="-99.8" font-family="Times,serif" font-size="14.00">WelcomePageRoutingModule</text>
</g>
<!-- WelcomePageRoutingModule&#45;&gt;WelcomePageModule -->
<g id="edge3" class="edge">
<title>WelcomePageRoutingModule&#45;&gt;WelcomePageModule</title>
<path fill="none" stroke="black" d="M250,-122.11C250,-122.11 250,-140.99 250,-140.99"/>
<polygon fill="black" stroke="black" points="246.5,-140.99 250,-150.99 253.5,-140.99 246.5,-140.99"/>
</g>
</g>
</svg>
