<?xml version="1.0" encoding="UTF-8" standalone="no"?>
<!DOCTYPE svg PUBLIC "-//W3C//DTD SVG 1.1//EN"
 "http://www.w3.org/Graphics/SVG/1.1/DTD/svg11.dtd">
<!-- Generated by graphviz version 2.47.0 (20210316.0004)
 -->
<!-- Title: dependencies Pages: 1 -->
<svg width="640pt" height="211pt"
 viewBox="0.00 0.00 640.00 211.00" xmlns="http://www.w3.org/2000/svg" xmlns:xlink="http://www.w3.org/1999/xlink">
<g id="graph0" class="graph" transform="scale(1 1) rotate(0) translate(4 207)">
<title>dependencies</title>
<polygon fill="white" stroke="transparent" points="-4,4 -4,-207 636,-207 636,4 -4,4"/>
<text text-anchor="start" x="295.01" y="-42.4" font-family="Times-12" font-weight="bold" font-size="14.00">Legend</text>
<polygon fill="#ffffb3" stroke="transparent" points="82,-10 82,-30 102,-30 102,-10 82,-10"/>
<text text-anchor="start" x="105.63" y="-15.4" font-family="Times-12" font-size="14.00"> &#160;Declarations</text>
<polygon fill="#8dd3c7" stroke="transparent" points="195,-10 195,-30 215,-30 215,-10 195,-10"/>
<text text-anchor="start" x="218.73" y="-15.4" font-family="Times-12" font-size="14.00"> &#160;Module</text>
<polygon fill="#80b1d3" stroke="transparent" points="281,-10 281,-30 301,-30 301,-10 281,-10"/>
<text text-anchor="start" x="304.78" y="-15.4" font-family="Times-12" font-size="14.00"> &#160;Bootstrap</text>
<polygon fill="#fdb462" stroke="transparent" points="378,-10 378,-30 398,-30 398,-10 378,-10"/>
<text text-anchor="start" x="401.67" y="-15.4" font-family="Times-12" font-size="14.00"> &#160;Providers</text>
<polygon fill="#fb8072" stroke="transparent" points="474,-10 474,-30 494,-30 494,-10 474,-10"/>
<text text-anchor="start" x="497.73" y="-15.4" font-family="Times-12" font-size="14.00"> &#160;Exports</text>
<g id="clust1" class="cluster">
<title>cluster_RegisterPageModule</title>
<polygon fill="none" stroke="black" stroke-dasharray="1,5" points="8,-70 8,-195 624,-195 624,-70 8,-70"/>
</g>
<g id="clust2" class="cluster">
<title>cluster_RegisterPageModule_declarations</title>
<polygon fill="none" stroke="black" points="334,-78 334,-130 616,-130 616,-78 334,-78"/>
</g>
<g id="clust5" class="cluster">
<title>cluster_RegisterPageModule_imports</title>
<polygon fill="none" stroke="black" points="16,-78 16,-130 326,-130 326,-78 16,-78"/>
</g>
<!-- RegisterFormComponent -->
<g id="node1" class="node">
<title>RegisterFormComponent</title>
<polygon fill="#ffffb3" stroke="black" points="608.32,-122 449.68,-122 449.68,-86 608.32,-86 608.32,-122"/>
<text text-anchor="middle" x="529" y="-99.8" font-family="Times,serif" font-size="14.00">RegisterFormComponent</text>
</g>
<!-- RegisterPageModule -->
<g id="node3" class="node">
<title>RegisterPageModule</title>
<polygon fill="#8dd3c7" stroke="black" points="374.91,-187 371.91,-191 350.91,-191 347.91,-187 241.09,-187 241.09,-151 374.91,-151 374.91,-187"/>
<text text-anchor="middle" x="308" y="-164.8" font-family="Times,serif" font-size="14.00">RegisterPageModule</text>
</g>
<!-- RegisterFormComponent&#45;&gt;RegisterPageModule -->
<g id="edge1" class="edge">
<title>RegisterFormComponent&#45;&gt;RegisterPageModule</title>
<path fill="none" stroke="black" d="M529,-122.11C529,-141.34 529,-169 529,-169 529,-169 384.91,-169 384.91,-169"/>
<polygon fill="black" stroke="black" points="384.91,-165.5 374.91,-169 384.91,-172.5 384.91,-165.5"/>
</g>
<!-- RegisterPage -->
<g id="node2" class="node">
<title>RegisterPage</title>
<polygon fill="#ffffb3" stroke="black" points="431.86,-122 342.14,-122 342.14,-86 431.86,-86 431.86,-122"/>
<text text-anchor="middle" x="387" y="-99.8" font-family="Times,serif" font-size="14.00">RegisterPage</text>
</g>
<!-- RegisterPage&#45;&gt;RegisterPageModule -->
<g id="edge2" class="edge">
<title>RegisterPage&#45;&gt;RegisterPageModule</title>
<path fill="none" stroke="black" d="M358.39,-122.11C358.39,-122.11 358.39,-140.99 358.39,-140.99"/>
<polygon fill="black" stroke="black" points="354.89,-140.99 358.39,-150.99 361.89,-140.99 354.89,-140.99"/>
</g>
<!-- RegisterPageRoutingModule -->
<g id="node4" class="node">
<title>RegisterPageRoutingModule</title>
<polygon fill="#8dd3c7" stroke="black" points="318.03,-122 315.03,-126 294.03,-126 291.03,-122 139.97,-122 139.97,-86 318.03,-86 318.03,-122"/>
<text text-anchor="middle" x="229" y="-99.8" font-family="Times,serif" font-size="14.00">RegisterPageRoutingModule</text>
</g>
<!-- RegisterPageRoutingModule&#45;&gt;RegisterPageModule -->
<g id="edge3" class="edge">
<title>RegisterPageRoutingModule&#45;&gt;RegisterPageModule</title>
<path fill="none" stroke="black" d="M279.78,-122.11C279.78,-122.11 279.78,-140.99 279.78,-140.99"/>
<polygon fill="black" stroke="black" points="276.28,-140.99 279.78,-150.99 283.28,-140.99 276.28,-140.99"/>
</g>
<!-- SharedModule -->
<g id="node5" class="node">
<title>SharedModule</title>
<polygon fill="#8dd3c7" stroke="black" points="122.42,-122 119.42,-126 98.42,-126 95.42,-122 23.58,-122 23.58,-86 122.42,-86 122.42,-122"/>
<text text-anchor="middle" x="73" y="-99.8" font-family="Times,serif" font-size="14.00">SharedModule</text>
</g>
<!-- SharedModule&#45;&gt;RegisterPageModule -->
<g id="edge4" class="edge">
<title>SharedModule&#45;&gt;RegisterPageModule</title>
<path fill="none" stroke="black" d="M73,-122.11C73,-141.34 73,-169 73,-169 73,-169 231.29,-169 231.29,-169"/>
<polygon fill="black" stroke="black" points="231.29,-172.5 241.29,-169 231.29,-165.5 231.29,-172.5"/>
</g>
</g>
</svg>
