<?xml version="1.0" encoding="UTF-8" standalone="no"?>
<!DOCTYPE svg PUBLIC "-//W3C//DTD SVG 1.1//EN"
 "http://www.w3.org/Graphics/SVG/1.1/DTD/svg11.dtd">
<!-- Generated by graphviz version 2.47.0 (20210316.0004)
 -->
<!-- Title: dependencies Pages: 1 -->
<svg width="806pt" height="211pt"
 viewBox="0.00 0.00 806.00 211.00" xmlns="http://www.w3.org/2000/svg" xmlns:xlink="http://www.w3.org/1999/xlink">
<g id="graph0" class="graph" transform="scale(1 1) rotate(0) translate(4 207)">
<title>dependencies</title>
<polygon fill="white" stroke="transparent" points="-4,4 -4,-207 802,-207 802,4 -4,4"/>
<text text-anchor="start" x="378.01" y="-42.4" font-family="Times-12" font-weight="bold" font-size="14.00">Legend</text>
<polygon fill="#ffffb3" stroke="transparent" points="165,-10 165,-30 185,-30 185,-10 165,-10"/>
<text text-anchor="start" x="188.63" y="-15.4" font-family="Times-12" font-size="14.00"> &#160;Declarations</text>
<polygon fill="#8dd3c7" stroke="transparent" points="278,-10 278,-30 298,-30 298,-10 278,-10"/>
<text text-anchor="start" x="301.73" y="-15.4" font-family="Times-12" font-size="14.00"> &#160;Module</text>
<polygon fill="#80b1d3" stroke="transparent" points="364,-10 364,-30 384,-30 384,-10 364,-10"/>
<text text-anchor="start" x="387.78" y="-15.4" font-family="Times-12" font-size="14.00"> &#160;Bootstrap</text>
<polygon fill="#fdb462" stroke="transparent" points="461,-10 461,-30 481,-30 481,-10 461,-10"/>
<text text-anchor="start" x="484.67" y="-15.4" font-family="Times-12" font-size="14.00"> &#160;Providers</text>
<polygon fill="#fb8072" stroke="transparent" points="557,-10 557,-30 577,-30 577,-10 557,-10"/>
<text text-anchor="start" x="580.73" y="-15.4" font-family="Times-12" font-size="14.00"> &#160;Exports</text>
<g id="clust1" class="cluster">
<title>cluster_AdminPageModule</title>
<polygon fill="none" stroke="black" stroke-dasharray="1,5" points="8,-70 8,-195 790,-195 790,-70 8,-70"/>
</g>
<g id="clust2" class="cluster">
<title>cluster_AdminPageModule_declarations</title>
<polygon fill="none" stroke="black" points="510,-78 510,-130 782,-130 782,-78 510,-78"/>
</g>
<g id="clust5" class="cluster">
<title>cluster_AdminPageModule_imports</title>
<polygon fill="none" stroke="black" points="16,-78 16,-130 502,-130 502,-78 16,-78"/>
</g>
<!-- AdminPage -->
<g id="node1" class="node">
<title>AdminPage</title>
<polygon fill="#ffffb3" stroke="black" points="774.1,-122 691.9,-122 691.9,-86 774.1,-86 774.1,-122"/>
<text text-anchor="middle" x="733" y="-99.8" font-family="Times,serif" font-size="14.00">AdminPage</text>
</g>
<!-- AdminPageModule -->
<g id="node3" class="node">
<title>AdminPageModule</title>
<polygon fill="#8dd3c7" stroke="black" points="471.65,-187 468.65,-191 447.65,-191 444.65,-187 346.35,-187 346.35,-151 471.65,-151 471.65,-187"/>
<text text-anchor="middle" x="409" y="-164.8" font-family="Times,serif" font-size="14.00">AdminPageModule</text>
</g>
<!-- AdminPage&#45;&gt;AdminPageModule -->
<g id="edge1" class="edge">
<title>AdminPage&#45;&gt;AdminPageModule</title>
<path fill="none" stroke="black" d="M733,-122.28C733,-143.32 733,-175 733,-175 733,-175 481.85,-175 481.85,-175"/>
<polygon fill="black" stroke="black" points="481.85,-171.5 471.85,-175 481.85,-178.5 481.85,-171.5"/>
</g>
<!-- UserListItemComponent -->
<g id="node2" class="node">
<title>UserListItemComponent</title>
<polygon fill="#ffffb3" stroke="black" points="673.69,-122 518.31,-122 518.31,-86 673.69,-86 673.69,-122"/>
<text text-anchor="middle" x="596" y="-99.8" font-family="Times,serif" font-size="14.00">UserListItemComponent</text>
</g>
<!-- UserListItemComponent&#45;&gt;AdminPageModule -->
<g id="edge2" class="edge">
<title>UserListItemComponent&#45;&gt;AdminPageModule</title>
<path fill="none" stroke="black" d="M596,-122.02C596,-139.37 596,-163 596,-163 596,-163 481.79,-163 481.79,-163"/>
<polygon fill="black" stroke="black" points="481.79,-159.5 471.79,-163 481.79,-166.5 481.79,-159.5"/>
</g>
<!-- AdminPageRoutingModule -->
<g id="node4" class="node">
<title>AdminPageRoutingModule</title>
<polygon fill="#8dd3c7" stroke="black" points="494.27,-122 491.27,-126 470.27,-126 467.27,-122 323.73,-122 323.73,-86 494.27,-86 494.27,-122"/>
<text text-anchor="middle" x="409" y="-99.8" font-family="Times,serif" font-size="14.00">AdminPageRoutingModule</text>
</g>
<!-- AdminPageRoutingModule&#45;&gt;AdminPageModule -->
<g id="edge3" class="edge">
<title>AdminPageRoutingModule&#45;&gt;AdminPageModule</title>
<path fill="none" stroke="black" d="M409,-122.11C409,-122.11 409,-140.99 409,-140.99"/>
<polygon fill="black" stroke="black" points="405.5,-140.99 409,-150.99 412.5,-140.99 405.5,-140.99"/>
</g>
<!-- HomePageRoutingModule -->
<g id="node5" class="node">
<title>HomePageRoutingModule</title>
<polygon fill="#8dd3c7" stroke="black" points="306.09,-122 303.09,-126 282.09,-126 279.09,-122 139.91,-122 139.91,-86 306.09,-86 306.09,-122"/>
<text text-anchor="middle" x="223" y="-99.8" font-family="Times,serif" font-size="14.00">HomePageRoutingModule</text>
</g>
<!-- HomePageRoutingModule&#45;&gt;AdminPageModule -->
<g id="edge4" class="edge">
<title>HomePageRoutingModule&#45;&gt;AdminPageModule</title>
<path fill="none" stroke="black" d="M223,-122.02C223,-139.37 223,-163 223,-163 223,-163 336.29,-163 336.29,-163"/>
<polygon fill="black" stroke="black" points="336.29,-166.5 346.29,-163 336.29,-159.5 336.29,-166.5"/>
</g>
<!-- SharedModule -->
<g id="node6" class="node">
<title>SharedModule</title>
<polygon fill="#8dd3c7" stroke="black" points="122.42,-122 119.42,-126 98.42,-126 95.42,-122 23.58,-122 23.58,-86 122.42,-86 122.42,-122"/>
<text text-anchor="middle" x="73" y="-99.8" font-family="Times,serif" font-size="14.00">SharedModule</text>
</g>
<!-- SharedModule&#45;&gt;AdminPageModule -->
<g id="edge5" class="edge">
<title>SharedModule&#45;&gt;AdminPageModule</title>
<path fill="none" stroke="black" d="M73,-122.28C73,-143.32 73,-175 73,-175 73,-175 336.2,-175 336.2,-175"/>
<polygon fill="black" stroke="black" points="336.2,-178.5 346.2,-175 336.2,-171.5 336.2,-178.5"/>
</g>
</g>
</svg>
