<?xml version="1.0" encoding="UTF-8" standalone="no"?>
<!DOCTYPE svg PUBLIC "-//W3C//DTD SVG 1.1//EN"
 "http://www.w3.org/Graphics/SVG/1.1/DTD/svg11.dtd">
<!-- Generated by graphviz version 2.47.0 (20210316.0004)
 -->
<!-- Title: dependencies Pages: 1 -->
<svg width="504pt" height="284pt"
 viewBox="0.00 0.00 504.00 284.00" xmlns="http://www.w3.org/2000/svg" xmlns:xlink="http://www.w3.org/1999/xlink">
<g id="graph0" class="graph" transform="scale(1 1) rotate(0) translate(4 280)">
<title>dependencies</title>
<polygon fill="white" stroke="transparent" points="-4,4 -4,-280 500,-280 500,4 -4,4"/>
<text text-anchor="start" x="227.01" y="-42.4" font-family="Times-12" font-weight="bold" font-size="14.00">Legend</text>
<polygon fill="#ffffb3" stroke="transparent" points="14,-10 14,-30 34,-30 34,-10 14,-10"/>
<text text-anchor="start" x="37.63" y="-15.4" font-family="Times-12" font-size="14.00"> &#160;Declarations</text>
<polygon fill="#8dd3c7" stroke="transparent" points="127,-10 127,-30 147,-30 147,-10 127,-10"/>
<text text-anchor="start" x="150.73" y="-15.4" font-family="Times-12" font-size="14.00"> &#160;Module</text>
<polygon fill="#80b1d3" stroke="transparent" points="213,-10 213,-30 233,-30 233,-10 213,-10"/>
<text text-anchor="start" x="236.78" y="-15.4" font-family="Times-12" font-size="14.00"> &#160;Bootstrap</text>
<polygon fill="#fdb462" stroke="transparent" points="310,-10 310,-30 330,-30 330,-10 310,-10"/>
<text text-anchor="start" x="333.67" y="-15.4" font-family="Times-12" font-size="14.00"> &#160;Providers</text>
<polygon fill="#fb8072" stroke="transparent" points="406,-10 406,-30 426,-30 426,-10 406,-10"/>
<text text-anchor="start" x="429.73" y="-15.4" font-family="Times-12" font-size="14.00"> &#160;Exports</text>
<g id="clust1" class="cluster">
<title>cluster_RegisterPageRoutingModule</title>
<polygon fill="none" stroke="black" stroke-dasharray="1,5" points="80,-70 80,-268 416,-268 416,-70 80,-70"/>
</g>
<g id="clust2" class="cluster">
<title>cluster_RegisterPageRoutingModule_declarations</title>
<polygon fill="none" stroke="black" points="210,-78 210,-130 408,-130 408,-78 210,-78"/>
</g>
<g id="clust4" class="cluster">
<title>cluster_RegisterPageRoutingModule_imports</title>
<polygon fill="none" stroke="black" points="88,-78 88,-130 202,-130 202,-78 88,-78"/>
</g>
<g id="clust5" class="cluster">
<title>cluster_RegisterPageRoutingModule_exports</title>
<polygon fill="none" stroke="black" points="147,-208 147,-260 349,-260 349,-208 147,-208"/>
</g>
<!-- PasswordStrengthComponent -->
<g id="node1" class="node">
<title>PasswordStrengthComponent</title>
<polygon fill="#ffffb3" stroke="black" points="400.43,-122 217.57,-122 217.57,-86 400.43,-86 400.43,-122"/>
<text text-anchor="middle" x="309" y="-99.8" font-family="Times,serif" font-size="14.00">PasswordStrengthComponent</text>
</g>
<!-- RegisterPageRoutingModule -->
<g id="node2" class="node">
<title>RegisterPageRoutingModule</title>
<polygon fill="#8dd3c7" stroke="black" points="337.03,-187 334.03,-191 313.03,-191 310.03,-187 158.97,-187 158.97,-151 337.03,-151 337.03,-187"/>
<text text-anchor="middle" x="248" y="-164.8" font-family="Times,serif" font-size="14.00">RegisterPageRoutingModule</text>
</g>
<!-- PasswordStrengthComponent&#45;&gt;RegisterPageRoutingModule -->
<g id="edge1" class="edge">
<title>PasswordStrengthComponent&#45;&gt;RegisterPageRoutingModule</title>
<path fill="none" stroke="black" d="M277.53,-122.11C277.53,-122.11 277.53,-140.99 277.53,-140.99"/>
<polygon fill="black" stroke="black" points="274.03,-140.99 277.53,-150.99 281.03,-140.99 274.03,-140.99"/>
</g>
<!-- PasswordStrengthComponent  -->
<g id="node4" class="node">
<title>PasswordStrengthComponent </title>
<polygon fill="#fb8072" stroke="black" points="340.93,-252 155.07,-252 155.07,-216 340.93,-216 340.93,-252"/>
<text text-anchor="middle" x="248" y="-229.8" font-family="Times,serif" font-size="14.00">PasswordStrengthComponent </text>
</g>
<!-- RegisterPageRoutingModule&#45;&gt;PasswordStrengthComponent  -->
<g id="edge3" class="edge">
<title>RegisterPageRoutingModule&#45;&gt;PasswordStrengthComponent </title>
<path fill="none" stroke="black" stroke-dasharray="5,2" d="M248,-187.11C248,-187.11 248,-205.99 248,-205.99"/>
<polygon fill="black" stroke="black" points="244.5,-205.99 248,-215.99 251.5,-205.99 244.5,-205.99"/>
</g>
<!-- SharedModule -->
<g id="node3" class="node">
<title>SharedModule</title>
<polygon fill="#8dd3c7" stroke="black" points="194.42,-122 191.42,-126 170.42,-126 167.42,-122 95.58,-122 95.58,-86 194.42,-86 194.42,-122"/>
<text text-anchor="middle" x="145" y="-99.8" font-family="Times,serif" font-size="14.00">SharedModule</text>
</g>
<!-- SharedModule&#45;&gt;RegisterPageRoutingModule -->
<g id="edge2" class="edge">
<title>SharedModule&#45;&gt;RegisterPageRoutingModule</title>
<path fill="none" stroke="black" d="M176.47,-122.11C176.47,-122.11 176.47,-140.99 176.47,-140.99"/>
<polygon fill="black" stroke="black" points="172.97,-140.99 176.47,-150.99 179.97,-140.99 172.97,-140.99"/>
</g>
</g>
</svg>
